<svg id="Layer_1" data-name="Layer 1" xmlns="http://www.w3.org/2000/svg" viewBox="0 0 800 800"><path d="M135.143,376.63H10V319.474L116.045,84.81h97.5v234.2h37.694v57.62H213.545V461.2h-78.4Zm0-57.62v-156.6L73.828,319.01Z" style="fill:#c8deda"/><path d="M287.423,360.366V189.828c0-65.985,34.678-110.595,111.07-110.595,75.89,0,110.568,44.61,110.568,110.6V360.366c0,63.2-38.2,107.806-110.568,107.806C325.115,468.172,287.423,424.492,287.423,360.366Zm136.2-1.858V191.686c0-15.334,0-43.215-25.129-43.215-25.632,0-25.129,27.881-25.129,43.215V358.508c0,14.4,2.009,40.426,25.129,40.426C422.114,398.934,423.622,372.912,423.622,358.508Z" style="fill:#c8deda"/><path d="M673.9,376.63H548.761V319.474L654.806,84.81h97.5v234.2H790v57.62H752.306V461.2H673.9Zm0-57.62v-156.6l-61.315,156.6Z" style="fill:#c8deda"/><path d="M584.548,610.334c12.7,28.981,10.228,86.894-8.743,87.1-17.018.19-46.591-6.526-56.977-69.7-2.506-15.244,55.951-39.709,65.72-17.407Z" style="fill:#ffa39e;fill-rule:evenodd"/><path d="M491.638,456.176c33.18,16.968,55.177,29.945,65.315,63.1S595.238,626.94,595.238,626.94c-33.1-5.794-59.9,1.358-79.078,20.55,0,0-10.818-75.618-16.521-107.135s-38.009-99.523-8-84.179Z" style="fill:#9fdded;fill-rule:evenodd"/><path d="M260.269,646.2a543.138,543.138,0,0,0-6.906,70c19.025,7.045,46.045,5.358,58.952-1.134l6.537-65.534L260.269,646.2Z" style="fill:#ffb7a6;fill-rule:evenodd"/><path d="M295.6,705.078c-1.141,5.756-2.374,10.847-3.522,15.147,8.013-.837,15.2-2.625,20.236-5.156l6.537-65.534-19.039-1.082C300,670.9,299.321,686.305,295.6,705.078Z" style="fill:#ff9495"/><path d="M324.462,461.259c-29.377,14.577-48.106,26.521-56.124,77.624-10.116,64.467-14.845,97.326-17.839,124.733,9.166,6.109,60.788,8.746,71.708,3.192,0,0,3.907-56.331,8.383-96.744,4.677-42.213,15.614-119.595-6.128-108.8Z" style="fill:#9fdded;fill-rule:evenodd"/><path d="M321.808,505.105c-18.635,14.333-21.05,39.542-23.359,67.8-.813,9.963.152,5.108,1.14,59.821.266,14.731.394,26.457.007,37.1,10.121-.151,18.82-1.09,22.611-3.018,0,0,3.907-56.331,8.383-96.744,2.29-20.668,6.078-49.761,6.8-72.814A47.818,47.818,0,0,0,321.808,505.105Z" style="fill:#87ccde"/><path d="M467.376,449.491c-13.047-4.523-27.667-9.865-30.837-15.2-8.584-14.445-8.152-64.527-8.152-64.527l-50.62,1.59s4.614,42.774-4.038,62.594c-3.742,8.573-19.334,15.714-32.346,21.29C368.473,510.777,447.622,509.667,467.376,449.491Z" style="fill:#ffb7a6;fill-rule:evenodd"/><path d="M429.917,404.881c-1.682-17.4-1.53-35.115-1.53-35.115l-50.62,1.59a260.386,260.386,0,0,1,1.147,31.064Q404.416,432.462,429.917,404.881Z" style="fill:#ff9495"/><path d="M455.266,445.106c-12.107,53.02-89.162,51.881-99.85,3.681-4.581,2.339-9.463,4.5-14.033,6.453,27.09,55.537,106.239,54.427,125.993-5.749C463.361,448.1,459.2,446.629,455.266,445.106Z" style="fill:#ff9495"/><path d="M460.922,445.353c-17.731,54.025-88.8,55.012-113.1,5.133-15.305,6.6-32.7,12.912-39.745,26.372-12.415,23.725-7.727,83.448-2.649,145.64s3.917,97.114,3.917,97.114l223.112-1.43s-4.558-43.936-5.973-101.246,13.091-113.318-6.649-140.128c-12.45-16.908-38.914-24.514-58.913-31.455Z" style="fill:#9fdded;fill-rule:evenodd"/><path d="M451.6,211.371s18.5,3.891,34.17,28.945c18.714,29.917,14.27,69.748.482,57.744,6.915,29.964-7.569,31.883-9.857,19.168,2.167,39.855-17.513,38.682-17.331,26.723-27.063,63.975-83.689,63.316-108.535.186,1.68,8.1-11.808,11.417-17.61-17.534,1.1,9.146-17.662,9.524-11.009-22.339-4.225,11.233-21.28,5.26-4.113-31.238-44.048.388,40.565-109.929,108.3-72.536-11.077-10.431,8-15.4,18.3,8.473-3.636-11.542,7.381-8.49,7.206,2.408Z" style="fill:#03008f;fill-rule:evenodd"/><path d="M464.032,323.71c4.882-2.721,18.695-4.8,21.68,7.948,3.67,15.666-14.827,28.711-26.119,22.213-.2-10.524,4.439-30.161,4.439-30.161Z" style="fill:#ff9495;fill-rule:evenodd"/><path d="M481.8,330.63c-9.9-.854-15.618,4.828-18.472,14.978" style="fill:#ffa39e;stroke:#000;stroke-linecap:round;stroke-linejoin:round;stroke-width:1.08009941375722px;fill-rule:evenodd"/><path d="M346.835,323.71c-4.882-2.721-18.694-4.8-21.68,7.948-3.668,15.666,14.83,28.711,26.121,22.213.2-10.524-4.441-30.161-4.441-30.161Z" style="fill:#ff9495;fill-rule:evenodd"/><path d="M329.07,330.63c9.9-.854,15.62,4.828,18.471,14.978" style="fill:#ffa39e;stroke:#000;stroke-linecap:round;stroke-linejoin:round;stroke-width:1.08009941375722px;fill-rule:evenodd"/><path d="M473.926,267.835c6.029,15.35-7.881,81.688-15.848,101.931s-32.508,35.717-53.715,35.758-47.651-16.571-53.715-35.946-13.689-97.855-7.863-106.666c23.172-35.05,117.972-28.612,131.141,4.923Z" style="fill:#ffb7a6;fill-rule:evenodd"/><path d="M473.926,267.835c-13.169-33.535-107.969-39.973-131.141-4.923-3.062,4.631-2.405,28.51-.215,52.935,2.891-14.165,15.49-21.089,20.192-35.643.231,12.882,17.118,2.932,33.14-9.719-7.954,11.758,9.52,5.991,16.7-1.031,12.506,12.909,39.2,42.116,34.715,15.526,10.822,20.857,20.025,17.152,23.976,31.726C474.985,295.764,476.928,275.478,473.926,267.835Z" style="fill:#ff9495"/><path d="M393.264,378.631c8.619-2,13.195-.149,14.724,6.986a25.068,25.068,0,0,0-14.724-6.986Z" style="fill-rule:evenodd"/><path d="M398.574,326.825s-5.958,19.714-7.617,25.962c-1.346,5.067,4.973,10.615,12.7,9.6" style="fill:none;stroke:#000;stroke-linecap:round;stroke-linejoin:round;stroke-width:1.08009941375722px"/><path d="M439.318,315.337a5.526,5.526,0,1,0,5.527,5.526,5.529,5.529,0,0,0-5.527-5.526Z" style="fill-rule:evenodd"/><path d="M374.188,315.337a5.526,5.526,0,1,1-5.526,5.526,5.528,5.528,0,0,1,5.526-5.526Z" style="fill-rule:evenodd"/><path d="M433.228,295.081c8.3-.769,13.117,2.733,15.4,8.328,1.735,4.238,7.878,2.151,5.61-3.029-3.75-8.567-11.017-13.57-21.952-12.036-5.039.706-3.849,7.18.938,6.737Z" style="fill-rule:evenodd"/><path d="M380.279,295.081c-8.3-.769-13.116,2.733-15.406,8.328-1.735,4.238-7.879,2.151-5.61-3.029,3.75-8.567,11.017-13.57,21.952-12.036,5.039.706,3.849,7.18-.936,6.737Z" style="fill-rule:evenodd"/><path d="M470.241,322.192c-3.061-26.571-10.916-17.66-22.922-46.695,4.487,33.366-22.209-3.284-34.715-19.483-7.182,8.812-24.656,16.048-16.7,1.294-16.022,15.875-32.909,28.361-33.14,12.2-5.273,20.48-19.472,28.886-19.763,51.613,0,0-16.98-60.256-3.36-78.992s121.98-18.325,132.742,3.385-2.14,76.681-2.14,76.681Z" style="fill:#03008f;fill-rule:evenodd"/><circle cx="444.673" cy="321.819" r="42.982" style="fill:#c7e9ef;opacity:0.5"/><path d="M481.477,299.638C454.4,311.074,436.2,331.7,425.829,360.417a42.943,42.943,0,0,0,55.648-60.779Z" style="fill:#fff;opacity:0.5"/><rect x="461.016" y="373.637" width="9.986" height="13.604" transform="translate(-102.014 182.328) rotate(-20)" style="fill:#9b9abc"/><rect x="457.204" y="365.625" width="9.986" height="8.683" transform="translate(-98.662 180.392) rotate(-20)" style="fill:#8a89b1"/><path d="M474.532,384.845h10.118a2.286,2.286,0,0,1,2.286,2.286v56.193a7.345,7.345,0,0,1-7.345,7.345h0a7.345,7.345,0,0,1-7.345-7.345V387.131a2.286,2.286,0,0,1,2.286-2.286Z" transform="translate(-113.959 189.224) rotate(-20)" style="fill:#57568f"/><g style="opacity:0.5"><path d="M444.67,278.825v4.321a38.72,38.72,0,1,1-13.22,2.343,38.789,38.789,0,0,1,13.22-2.343v-4.321m0,0a42.989,42.989,0,1,0,40.394,28.293,42.9,42.9,0,0,0-40.394-28.293Z" style="fill:#c7e9ef"/></g><path d="M427.349,274.222a50.652,50.652,0,1,0,64.92,30.273A50.653,50.653,0,0,0,427.349,274.222Zm32.024,87.987a42.982,42.982,0,1,1,25.69-55.091A42.981,42.981,0,0,1,459.373,362.209Z" style="fill:#57568f"/><path d="M461.4,424.14s-11.2-2.1-13.825-.87-4.731,6.951-5.305,9.392,7.5,23.758,9.226,29.794,21.61-2.8,13.918-22.229A83.082,83.082,0,0,1,461.4,424.14Z" style="fill:#ff9495;fill-rule:evenodd"/><path d="M502.713,396.824c-1.765-2.551-23.706-14.119-29.7-12.036-6.47,2.251-19.585,24.082-19.863,28.329s5.18,9.632,5.18,9.632L507.565,410.2c.6-3.793-3.187-10.965-4.852-13.376Z" style="fill:#ff9495;fill-rule:evenodd"/><path d="M504.214,400.443c-4.188-.3-46.466,10.39-49.81,19.392s3.439,16.638,3.439,16.638c-3.255,5.04-.55,11.22,5.377,19.385-2.558,5,4.565,27.653,9.846,29.232,5.3,1.584,11.868-.285,11.868-.285s-1.09,14.64,4.355,20.317,17.172,5.843,17.172,5.843S519,636.622,522.876,662.676s41.163,38.4,53.182,34.2,18.355-45.509,9.421-73.881-45.838-111-47.488-119.832-4.644-49.637-6.094-56.351c-1.3-6.034-3.242-13.091-4.433-18.338-3.326-14.651-7.865-19.375-15.231-18.31,0,0-3.426-9.4-8.019-9.723Z" style="fill:#ffb7a6;fill-rule:evenodd"/><path d="M457.759,436.641c4.72-6.284,27.15-12.4,47.2-20.087m-41.7,39.242c3.88-6.282,29.178-13.154,47.814-21.084m-2.385,30.042-23.227,3.476a13.4,13.4,0,0,1-3.354,13.216m-7.416-15.078c2.724,2.674,7.692,2.376,10.924,1.827m-.121,16.463s13.019-2.21,18.141-3.644c4.133-1.156,3.85-13.588-11.006-13.827" style="fill:none;stroke:#000;stroke-linecap:round;stroke-linejoin:round;stroke-width:1.08009941375722px"/><path d="M107.048,591.91a14.51,14.51,0,0,1,5.04,5.462,15.744,15.744,0,0,1,1.867,7.613,16.145,16.145,0,0,1-1.867,7.682,14.62,14.62,0,0,1-5.04,5.571,12.5,12.5,0,0,1-6.911,2.048H86.884v15.577a3.4,3.4,0,0,1-.918,2.4,3.317,3.317,0,0,1-4.687.035,3.434,3.434,0,0,1-.881-2.433V593.281A3.37,3.37,0,0,1,83.78,589.9h16.357A12.654,12.654,0,0,1,107.048,591.91Zm-3.385,20.723a8.536,8.536,0,0,0,2.573-3.276,10.259,10.259,0,0,0,.952-4.372,9.232,9.232,0,0,0-2.08-6.1,6.272,6.272,0,0,0-4.971-2.5H86.884v17.481h13.253A5.685,5.685,0,0,0,103.663,612.633Z"/><path d="M158.02,636.219a3.193,3.193,0,0,1-3.172,3.241,2.935,2.935,0,0,1-1.8-.6,4.182,4.182,0,0,1-1.308-1.653l-4.372-10.367H125.588l-4.3,10.436a3.053,3.053,0,0,1-2.961,2.186,3.057,3.057,0,0,1-2.255-.774,2.852,2.852,0,0,1-.777-2.117,8.308,8.308,0,0,1,.143-1.131l17.975-43.568a4.018,4.018,0,0,1,1.377-1.727,2.821,2.821,0,0,1,2.008-.453,3.328,3.328,0,0,1,1.905.562,3.058,3.058,0,0,1,1.2,1.618l17.906,43.006A4.179,4.179,0,0,1,158.02,636.219Zm-29.753-15.8H144.7l-8.25-19.742Z"/><path d="M203.385,614.291a3.344,3.344,0,0,1,.952,2.4v15.864a3.317,3.317,0,0,1-1.687,2.96,27.9,27.9,0,0,1-15.089,4.441,25.531,25.531,0,0,1-12.943-3.385,25.366,25.366,0,0,1,0-43.994,25.527,25.527,0,0,1,12.943-3.379,29.569,29.569,0,0,1,6.805.775,20.96,20.96,0,0,1,5.886,2.323,3.449,3.449,0,0,1,1.262,1.2,2.915,2.915,0,0,1,.425,1.549,3.455,3.455,0,0,1-.952,2.433,3.02,3.02,0,0,1-2.295,1.027,3.342,3.342,0,0,1-1.825-.493,22.025,22.025,0,0,0-9.306-2.117,18.017,18.017,0,0,0-15.9,9.237,19.487,19.487,0,0,0,0,18.858,18.336,18.336,0,0,0,6.632,6.764,17.72,17.72,0,0,0,9.271,2.507,24.02,24.02,0,0,0,5.038-.568,19.754,19.754,0,0,0,4.544-1.48V620h-8.526a3.31,3.31,0,0,1-2.4-.952,3.148,3.148,0,0,1-.987-2.358,3.244,3.244,0,0,1,.987-2.433,3.314,3.314,0,0,1,2.4-.952h12.4A3.139,3.139,0,0,1,203.385,614.291Z"/><path d="M244.131,633.752a3.248,3.248,0,0,1,.952,2.323,2.981,2.981,0,0,1-.952,2.289,3.432,3.432,0,0,1-2.433.884H217.166a3.368,3.368,0,0,1-3.385-3.385V593.281a3.368,3.368,0,0,1,3.385-3.385H241.7a3.382,3.382,0,0,1,2.433.918,3.2,3.2,0,0,1,.952,2.4,2.981,2.981,0,0,1-.952,2.289,3.432,3.432,0,0,1-2.433.884H220.757v14.383h17.768a3.378,3.378,0,0,1,2.433.912,3.093,3.093,0,0,1,.952,2.33,2.935,2.935,0,0,1-.952,2.323,3.514,3.514,0,0,1-2.433.849H220.757v15.583H241.7A3.23,3.23,0,0,1,244.131,633.752Z"/><path d="M334.149,590.78A3.074,3.074,0,0,1,335,593v42.794a3.406,3.406,0,0,1-.952,2.467,3.23,3.23,0,0,1-2.433.987A4.686,4.686,0,0,1,330.1,639a2.579,2.579,0,0,1-1.165-.74l-27.705-36.093v33.976a3.022,3.022,0,0,1-3.1,3.1,2.9,2.9,0,0,1-2.186-.884,3.075,3.075,0,0,1-.843-2.22V593.281a3.286,3.286,0,0,1,.952-2.432,3.2,3.2,0,0,1,2.358-.953,4.23,4.23,0,0,1,1.624.321,2.792,2.792,0,0,1,1.2.878l27.636,36.168V593a3.013,3.013,0,0,1,3.1-3.1A2.893,2.893,0,0,1,334.149,590.78Z"/><path d="M388.475,627.475a23.382,23.382,0,0,1-8.5,9.128,24.125,24.125,0,0,1-24.532,0,23.353,23.353,0,0,1-8.5-9.128,28.659,28.659,0,0,1,0-25.806,23.393,23.393,0,0,1,8.5-9.128,24.162,24.162,0,0,1,24.532,0,23.423,23.423,0,0,1,8.5,9.128,28.7,28.7,0,0,1,0,25.806Zm-6.311-22.455a16.512,16.512,0,0,0-5.886-6.7,16.4,16.4,0,0,0-17.132-.034,16.158,16.158,0,0,0-5.886,6.661,22.766,22.766,0,0,0,0,19.174,16.46,16.46,0,0,0,5.886,6.7,16.3,16.3,0,0,0,17.132,0,16.533,16.533,0,0,0,5.886-6.7,22.659,22.659,0,0,0,0-19.105Z"/><path d="M433.455,590.78a3.082,3.082,0,0,1,.947,2.363,2.953,2.953,0,0,1-.947,2.324,3.54,3.54,0,0,1-2.432.849H418.47v39.547a3.205,3.205,0,0,1-1.022,2.4,3.847,3.847,0,0,1-5.146,0,3.2,3.2,0,0,1-1.021-2.4V596.316H398.8a3.434,3.434,0,0,1-2.432-.883,3.079,3.079,0,0,1-.953-2.364,3,3,0,0,1,.953-2.289,3.453,3.453,0,0,1,2.432-.884h32.221A3.451,3.451,0,0,1,433.455,590.78Z"/><path d="M490.548,596.385v14.6h17.344a3.377,3.377,0,0,1,2.432.912,3.176,3.176,0,0,1,.953,2.4,2.914,2.914,0,0,1-.953,2.186,3.356,3.356,0,0,1-2.432.918H490.548v18.468a3.208,3.208,0,0,1-1.021,2.4,3.376,3.376,0,0,1-2.433.987,3.342,3.342,0,0,1-2.467-.987,3.26,3.26,0,0,1-.987-2.4V593.281a3.37,3.37,0,0,1,3.385-3.385h24.039a3.382,3.382,0,0,1,2.433.918,3.2,3.2,0,0,1,.952,2.4,3.014,3.014,0,0,1-.986,2.221,3.326,3.326,0,0,1-2.4.952Z"/><path d="M564.541,627.475a23.382,23.382,0,0,1-8.5,9.128,24.125,24.125,0,0,1-24.532,0,23.345,23.345,0,0,1-8.5-9.128,28.659,28.659,0,0,1,0-25.806,23.386,23.386,0,0,1,8.5-9.128,24.162,24.162,0,0,1,24.532,0,23.423,23.423,0,0,1,8.5,9.128,28.7,28.7,0,0,1,0,25.806ZM558.23,605.02a16.512,16.512,0,0,0-5.886-6.7,16.4,16.4,0,0,0-17.132-.034,16.158,16.158,0,0,0-5.886,6.661,22.766,22.766,0,0,0,0,19.174,16.46,16.46,0,0,0,5.886,6.7,16.3,16.3,0,0,0,17.132,0,16.533,16.533,0,0,0,5.886-6.7,22.659,22.659,0,0,0,0-19.105Z"/><path d="M613.813,590.78a3.427,3.427,0,0,1,.883,2.432v27.074a20.221,20.221,0,0,1-2.467,10.006,17.886,17.886,0,0,1-6.8,6.948,19.172,19.172,0,0,1-9.765,2.5,19.494,19.494,0,0,1-9.868-2.5,17.817,17.817,0,0,1-6.839-6.948,20.231,20.231,0,0,1-2.467-10.006V593.212a3.226,3.226,0,0,1,.987-2.432,3.5,3.5,0,0,1,2.536-.953,3.32,3.32,0,0,1,2.364.987,3.208,3.208,0,0,1,1.021,2.4v27.074a12.874,12.874,0,0,0,1.692,6.587,12.18,12.18,0,0,0,4.51,4.549,11.931,11.931,0,0,0,6.064,1.624,12.587,12.587,0,0,0,6.277-1.624,12.247,12.247,0,0,0,4.618-4.549,12.722,12.722,0,0,0,1.727-6.587V593.212a3.534,3.534,0,0,1,.843-2.432,2.959,2.959,0,0,1,2.33-.953A3.044,3.044,0,0,1,613.813,590.78Z"/><path d="M665.454,590.78A3.074,3.074,0,0,1,666.3,593v42.794a3.406,3.406,0,0,1-.953,2.467,3.226,3.226,0,0,1-2.432.987A4.692,4.692,0,0,1,661.4,639a2.581,2.581,0,0,1-1.164-.74l-27.706-36.093v33.976a3.02,3.02,0,0,1-3.1,3.1,2.9,2.9,0,0,1-2.186-.884,3.072,3.072,0,0,1-.844-2.22V593.281a3.287,3.287,0,0,1,.953-2.432,3.2,3.2,0,0,1,2.358-.953,4.225,4.225,0,0,1,1.623.321,2.786,2.786,0,0,1,1.2.878l27.637,36.168V593a3.011,3.011,0,0,1,3.1-3.1A2.9,2.9,0,0,1,665.454,590.78Z"/><path d="M710.084,593.212a20.475,20.475,0,0,1,7.12,8.916,33.666,33.666,0,0,1,0,24.957,20.228,20.228,0,0,1-7.12,8.887,19.415,19.415,0,0,1-11.349,3.276H681.392a3.37,3.37,0,0,1-3.385-3.385V593.281a3.37,3.37,0,0,1,3.385-3.385h17.343A19.272,19.272,0,0,1,710.084,593.212Zm-1.268,34.441q3.6-5.112,3.591-13.081,0-7.891-3.626-13.041t-10.751-5.146H684.983v36.38H698.03Q705.215,632.765,708.816,627.653Z"/></svg>