<?xml version="1.0" encoding="utf-8"?>
<!-- Generator: Adobe Illustrator 19.2.1, SVG Export Plug-In . SVG Version: 6.00 Build 0)  -->
<svg version="1.1" id="layer" xmlns="http://www.w3.org/2000/svg" xmlns:xlink="http://www.w3.org/1999/xlink" x="0px" y="0px"
	 viewBox="0 0 652 652" style="enable-background:new 0 0 652 652;" xml:space="preserve">
<style type="text/css">
	.st0{fill:#003CA4;}
</style>
<g transform="translate(0.000000,260.000000) scale(0.100000,-0.100000)">
	<path class="st0" d="M2977.4,1873c-360.1-43.1-757.4-187.9-1070.5-395.3c-242.7-158.5-559.7-477.5-716.3-714.3
		C484.1-320.9,715-1765.3,1724.9-2567.7c694.8-551.9,1649.8-694.8,2471.8-369.9c782.8,309.2,1356.3,990.3,1532.4,1820.1
		c62.6,287.7,62.6,726.1,0,1015.7C5457.1,1172.3,4267.2,2025.6,2977.4,1873z M5292.7-52.8c66.5-29.4,121.3-60.7,121.3-70.5
		c0-15.7-137-252.5-146.8-252.5c-3.9,0-52.8,21.5-111.6,48.9c-117.4,54.8-289.7,66.5-326.8,21.5c-37.2-43.1-3.9-88.1,84.2-111.6
		c305.3-80.2,407.1-129.2,475.6-230.9c52.8-78.3,60.7-238.8,17.6-340.5c-74.4-176.1-319-260.3-610.6-211.4
		c-137,23.5-340.5,103.7-340.5,133.1c0,25.4,137,240.7,152.7,240.7c7.8,0,66.5-21.5,131.1-48.9c111.6-45,264.2-62.6,330.8-37.2
		c17.6,5.9,31.3,33.3,31.3,56.8c0,50.9-37.2,68.5-313.1,146.8c-109.6,31.3-162.4,60.7-217.2,113.5
		c-178.1,180.1-82.2,499.1,176.1,581.3C4889.5,33.3,5143.9,13.7,5292.7-52.8z M1591.8-125.2c31.3-68.5,95.9-213.3,144.8-322.9
		c47-109.6,90-199.6,95.9-201.6c5.9,0,35.2,64.6,66.5,140.9c31.3,76.3,95.9,223.1,142.9,322.9l84.2,182h146.8h146.8v-596.9v-598.9
		l-150.7,5.9l-152.7,5.9l2,279.9c2,152.7-2,276-5.9,270.1c-7.8-7.8-76.3-150.7-223.1-475.6c-25.4-56.8-52.8-103.7-58.7-103.7
		c-9.8,0-154.6,293.6-250.5,508.8l-39.1,88.1v-287.7l-2-289.7h-156.6h-156.6v596.9V-3.9h154.6H1535L1591.8-125.2z M4153.6-33.2
		C4349.4-90,4449.2-283.8,4394.4-501c-21.5-90-88.1-180.1-162.4-221.2c-35.2-19.6-29.4-35.2,84.2-248.6l121.3-227h-187.9h-187.9
		l-97.9,207.5c-95.9,203.5-97.9,205.5-160.5,199.6l-62.6-5.9l-5.9-199.6l-5.9-201.6h-154.6h-156.6v596.9V-3.9h319
		C3961.8-3.9,4085.1-11.7,4153.6-33.2z M3155.5-330.7c129.2-66.5,144.8-123.3,144.8-518.6v-348.4h-137c-97.9,0-140.9,7.8-148.7,27.4
		c-7.8,21.5-23.5,19.6-82.2-9.8c-90-47-168.3-47-272,0c-105.7,48.9-142.9,121.3-142.9,277.9c0,113.5,3.9,125.3,74.4,193.8
		c86.1,86.1,207.5,115.5,336.6,82.2c76.3-19.6,78.3-19.6,78.3,35.2c0,31.3-13.7,58.7-31.3,66.5c-54.8,21.5-203.5,11.7-270.1-15.7
		l-66.5-27.4l-39.1,99.8L2560.6-366l60.7,25.4C2781.7-270.1,3032.2-266.1,3155.5-330.7z"/>
	<path class="st0" d="M3730.9-405.1v-127.2h137c152.7,0,215.3,37.2,215.3,127.2s-62.6,127.2-215.3,127.2h-137V-405.1z"/>
	<path class="st0" d="M2815-829.8c-33.3-33.3-29.4-105.7,7.8-140.9c35.2-35.2,64.6-39.1,133.1-11.7c41.1,15.7,50.9,31.3,50.9,86.1
		c0,43.1-11.7,70.5-31.3,78.3C2924.6-798.5,2840.4-804.3,2815-829.8z"/>
</g>
</svg>
